<?xml version="1.0" encoding="UTF-8" standalone="no"?>
<svg
   width="231.80971"
   height="67.531075"
   viewBox="0 0 61.337383 17.869508"
   version="1.1"
   id="svg36"
   xmlns="http://www.w3.org/2000/svg"
   xmlns:svg="http://www.w3.org/2000/svg">
  <defs
     id="defs36" />
  <g
     id="g3"
     transform="translate(-0.21254453,-42.722981)">
    <g
       id="g2">
      <g
         fill="#0a70a3"
         id="g36"
         transform="translate(0.09100624,42.591576)">
        <path
           d="m 20.59,2.5 h 3.75 v 13.54 h -3.75 z m 0,0"
           id="path31" />
        <path
           d="M 26.3,16.04 V 2.5 h 10.33 v 2.62 h -6.57 v 2.8 h 6.04 v 2.63 h -6.04 v 2.87 h 6.57 v 2.62 z m 0,0"
           id="path32" />
        <path
           d="M 38.73,16.04 V 2.5 h 10.31 v 2.62 h -6.56 v 2.8 h 6.04 v 2.63 h -6.04 v 2.87 h 6.56 v 2.62 z m 0,0"
           id="path33" />
        <path
           d="M 51.15,16.04 V 2.5 H 61.46 V 5.12 H 54.9 v 2.8 h 6.04 v 2.63 H 54.9 v 2.87 h 6.56 v 2.62 z m 0,0"
           id="path34" />
        <path
           d="M 8.55,2.65 C 9.15,2.18 9.9,2.57 10.4,3 c 0.53,0.4 1.08,0.86 1.56,1.33 l 0.09,0.05 a 25.93,25.93 0 0 1 3.6,4.06 c 0.16,0.26 0.3,0.55 0.21,0.88 -0.34,0.85 -1.03,1.53 -1.63,2.27 A 27.5,27.5 0 0 1 10,15.44 C 9.68,15.66 9.26,15.86 8.89,15.69 7.76,15.09 6.79,14.12 5.81,13.23 A 21.34,21.34 0 0 1 2.63,9.62 C 2.5,9.44 2.46,9.22 2.46,8.97 2.58,8.52 2.88,8.15 3.18,7.77 A 29.6,29.6 0 0 1 6.74,4.07 L 6.88,3.96 C 7.42,3.48 7.97,3.06 8.54,2.65 M 10.29,1.28 9.63,0.32 C 9.54,0.27 9.44,0.2 9.35,0.16 9.15,0.08 8.93,0.18 8.77,0.31 L 7.55,1.9 A 33,33 0 0 1 0.7,8.34 C 0.5,8.5 0.2,8.65 0.14,8.91 0.07,9.14 0.2,9.34 0.34,9.48 a 33.35,33.35 0 0 1 5.7,4.96 c 0.31,0.32 0.56,0.64 0.86,0.95 0.51,0.67 1.1,1.35 1.57,2.07 0.15,0.16 0.17,0.4 0.4,0.48 0.18,0.06 0.4,0.1 0.57,0 l 0.17,-0.17 a 33.9,33.9 0 0 1 7.75,-7.82 c 0.3,-0.27 0.87,-0.36 0.88,-0.86 A 0.78,0.78 0 0 0 17.89,8.51 H 17.84 A 30.13,30.13 0 0 1 13.53,4.94 L 12.05,3.4 C 11.45,2.73 10.86,1.99 10.3,1.28 M 8.77,3.02 C 9.38,2.6 9.93,3.18 10.4,3.52 a 24.66,24.66 0 0 1 4.88,5.07 c 0.17,0.24 0.24,0.62 0.1,0.9 -0.35,0.57 -0.8,1.1 -1.24,1.62 v 0.03 a 32.86,32.86 0 0 1 -3.49,3.33 c -0.6,0.37 -1.16,1.18 -1.94,0.68 A 28.14,28.14 0 0 1 3.78,10.5 C 3.54,10.11 3.16,9.8 2.98,9.37 2.75,8.79 3.28,8.37 3.58,7.92 5.04,6.11 6.88,4.32 8.77,3.02 M 9.16,4.22 8.99,4.74 8.16,7.13 c 0.2,0.02 0.47,0 0.67,0.02 V 7.17 L 8.71,9.87 8.73,9.89 C 9,9.92 9.33,9.93 9.6,9.89 V 9.84 L 9.49,7.23 9.51,7.14 10.24,7.13 C 9.87,6.16 9.52,5.19 9.18,4.21 Z M 6.33,7.93 c -0.47,0.24 -1.15,0.6 -1.08,1.23 0.1,0.35 0.48,0.58 0.78,0.72 1.65,0.73 3.85,0.75 5.6,0.21 0.42,-0.17 1,-0.4 1.08,-0.94 0,-0.43 -0.46,-0.7 -0.8,-0.87 V 8.26 c 0.12,-0.05 0.25,-0.1 0.37,-0.1 V 8.14 c -0.58,-0.1 -1.15,-0.25 -1.71,-0.4 0.1,0.25 0.18,0.5 0.27,0.77 0.18,-0.06 0.35,-0.1 0.53,-0.12 0.3,0.11 0.73,0.28 0.77,0.65 0.04,0.35 -0.35,0.52 -0.59,0.66 A 6.85,6.85 0 0 1 7.49,9.86 C 7.13,9.74 6.59,9.59 6.55,9.12 6.81,8.51 7.49,8.38 8.05,8.22 7.76,8.04 7.47,7.87 7.18,7.66 6.88,7.68 6.6,7.81 6.33,7.93 m 2.36,2.69 c -0.05,0.96 -0.06,1.84 -0.13,2.8 0.38,0.03 0.8,0.07 1.2,0.01 L 9.65,10.76 9.63,10.63 c -0.31,0.01 -0.6,0.02 -0.94,-0.01"
           id="path35" />
        <path
           d="m 12.22,16.1 c -0.33,0 -0.63,0.23 -0.63,0.63 0,0.4 0.3,0.63 0.63,0.63 a 0.6,0.6 0 0 0 0.63,-0.63 0.6,0.6 0 0 0 -0.63,-0.63 m 0,1.11 c -0.25,0 -0.45,-0.19 -0.45,-0.48 0,-0.29 0.2,-0.48 0.45,-0.48 0.25,0 0.45,0.2 0.45,0.48 0,0.29 -0.2,0.48 -0.45,0.48 M 12.5,16.6 c 0,-0.16 -0.1,-0.2 -0.27,-0.2 h -0.26 v 0.67 h 0.15 v -0.29 h 0.07 l 0.15,0.29 h 0.17 l -0.17,-0.3 c 0.1,0 0.16,-0.05 0.16,-0.17 m -0.25,0.07 H 12.12 V 16.5 h 0.1 c 0.05,0 0.13,0.01 0.13,0.08 0,0.08 -0.04,0.09 -0.1,0.09"
           id="path36" />
      </g>
    </g>
  </g>
</svg>
